<svg id="Layer_1" enable-background="new 0 0 512 512" style="fill: #fff" height="512" viewBox="0 0 512 512" width="512" xmlns="http://www.w3.org/2000/svg"><g><g><path d="m485.63 99.5h-39.92c-1.325-4.889-5.788-8.5-11.089-8.5h-52c-5.302 0-9.765 3.611-11.089 8.5h-16.032v-33.11c6.344-1.839 11-7.691 11-14.621v-3.923c0-17.56-14.286-31.846-31.846-31.846h-157.308c-17.56 0-31.846 14.286-31.846 31.846v3.923c0 6.929 4.656 12.782 11 14.621v33.11h-16.031c-1.325-4.889-5.788-8.5-11.089-8.5h-52c-5.302 0-9.765 3.611-11.089 8.5h-39.921c-14.541 0-26.37 11.83-26.37 26.37v161.38c0 15.431 8.612 29.199 21.5 36.35v132.65c0 17.231 14.019 31.25 31.25 31.25h13.541c1.325 4.889 5.788 8.5 11.089 8.5h52c5.302 0 9.765-3.611 11.089-8.5h38.223c4.143 0 7.5-3.358 7.5-7.5s-3.357-7.5-7.5-7.5h-37.812v-75.405c8.926-4.819 15.005-14.26 15.005-25.095v-27.247c8.933.905 93.537 13.607 100.114 12.745 6.298.889 91.592-11.892 100.116-12.745v27.247c0 10.835 6.079 20.276 15.005 25.095v75.405h-156.735c-4.143 0-7.5 3.358-7.5 7.5s3.357 7.5 7.5 7.5h157.146c1.325 4.889 5.788 8.5 11.089 8.5h52c5.302 0 9.765-3.611 11.089-8.5h13.541c17.231 0 31.25-14.019 31.25-31.25v-132.65c12.888-7.15 21.5-20.919 21.5-36.35v-161.38c0-14.54-11.829-26.37-26.37-26.37zm-284.13 0v-32.5h109v32.5zm124-32.5h15v32.5h-15zm-165-19.154c0-9.289 7.557-16.846 16.846-16.846h157.309c9.289 0 16.846 7.557 16.846 16.846v3.923c.13.695-190.595-.016-190.77.231-.127-.001-.23-.104-.23-.231-.001 0-.001-3.923-.001-3.923zm11 19.154h15v32.5h-15zm-90.62 39h45v177.5h-45zm-65.88 19.87c0-6.27 5.101-11.37 11.37-11.37h39.51v172.41c-10.086 5.288-15.913 16.576-14.995 28.392l-12.931-1.763c-13.086-1.784-22.954-13.086-22.954-26.289zm21.5 330.38v-127.771l14.385 1.961v41.56c0 10.831 6.075 20.27 14.995 25.09v75.41h-13.13c-8.96 0-16.25-7.29-16.25-16.25zm89.38 24.75h-45v-80.5h45zm15.005-109c0 7.444-6.056 13.5-13.5 13.5h-48c-7.444 0-13.5-6.056-13.5-13.5v-60c0-7.444 6.056-13.5 13.5-13.5h48c7.444 0 13.5 6.056 13.5 13.5zm126.218-30.252c-7.368 1-14.838.999-22.2.001l-89.018-12.135v-17.614c0-10.835-6.079-20.276-15.005-25.095v-172.405h230.24v172.405c-8.926 4.819-15.005 14.26-15.005 25.095v17.614zm104.012-29.748c0-7.444 6.056-13.5 13.5-13.5h48c7.444 0 13.5 6.056 13.5 13.5v60c0 7.444-6.056 13.5-13.5 13.5h-48c-7.444 0-13.5-6.056-13.5-13.5zm60.005 169h-45v-80.5h45zm28.13-8.5h-13.13v-75.41c8.92-4.821 14.995-14.259 14.995-25.09v-41.56l14.385-1.961v127.771c0 8.96-7.29 16.25-16.25 16.25zm37.75-185.25c0 13.203-9.868 24.505-22.953 26.289l-12.932 1.763c.919-11.817-4.91-23.105-14.995-28.392v-111.371c0-4.142-3.357-7.5-7.5-7.5s-7.5 3.358-7.5 7.5v107.961h-45v-177.5h45v33.846c.305 9.911 14.695 9.914 15 0v-25.346h39.51c6.27 0 11.37 5.101 11.37 11.37z"/><path d="m118.385 313.5h-30c-4.143 0-7.5 3.358-7.5 7.5v42c0 4.142 3.357 7.5 7.5 7.5h30c4.143 0 7.5-3.358 7.5-7.5v-42c0-4.142-3.358-7.5-7.5-7.5zm-7.5 42h-15v-27h15z"/><path d="m393.615 370.5h30c4.143 0 7.5-3.358 7.5-7.5v-42c0-4.142-3.357-7.5-7.5-7.5h-30c-4.143 0-7.5 3.358-7.5 7.5v42c0 4.142 3.358 7.5 7.5 7.5zm7.5-42h15v27h-15z"/><path d="m273.805 258.876h-35.609c-10.86 0-19.695 8.835-19.695 19.695v19.609c0 10.86 8.835 19.696 19.695 19.696h35.609c10.86 0 19.695-8.835 19.695-19.696v-19.609c0-10.86-8.835-19.695-19.695-19.695zm4.695 39.304c0 2.545-2.15 4.696-4.695 4.696h-35.609c-2.545 0-4.695-2.15-4.695-4.696v-19.609c0-2.545 2.15-4.695 4.695-4.695h35.609c2.545 0 4.695 2.15 4.695 4.695z"/></g></g></svg>