<svg width="44" height="44" viewBox="0 0 44 44" fill="none" xmlns="http://www.w3.org/2000/svg">
<circle cx="22" cy="22" r="22" fill="#2B2A29"/>
<path d="M31.1804 29.1804H31.1304H28.6957H28.6457V29.1304V16.3478C28.6457 16.1334 28.5222 15.9373 28.3296 15.8445C28.136 15.7522 27.9064 15.7769 27.7384 15.9115L27.7383 15.9115L26.7188 16.7265L26.6662 16.7686L26.6411 16.706L22.5191 6.40087L31.1804 29.1804ZM31.1804 29.1804V29.1304M31.1804 29.1804V29.1304M31.1804 29.1304V26.087C31.1804 25.7785 31.4302 25.5283 31.7391 25.5283H35.3913C35.7003 25.5283 35.95 25.7785 35.95 26.087V33.3913C35.95 33.6997 35.7003 33.95 35.3913 33.95H8.6087C8.30031 33.95 8.05 33.6997 8.05 33.3913V26.087C8.05 25.7786 8.30031 25.5283 8.6087 25.5283H12.2609C12.5693 25.5283 12.8196 25.7786 12.8196 26.087V29.1304V29.1804H12.8696H15.3043H15.3543V29.1304V16.3478C15.3543 16.1333 15.4773 15.9371 15.6712 15.8438L15.6714 15.8437M31.1804 29.1304L15.6714 15.8437M17.3338 16.7699L17.2812 16.7277L16.2622 15.9115L17.3338 16.7699ZM17.3338 16.7699L17.3589 16.7073M17.3338 16.7699L17.3589 16.7073M17.3589 16.7073L21.4809 6.40087L17.3589 16.7073ZM15.6714 15.8437C15.8637 15.7501 16.0944 15.7772 16.2622 15.9115L15.6714 15.8437ZM22.0464 8.22874L22 8.11267L21.9536 8.22874L18.2594 17.4645L18.2456 17.4989L18.2746 17.5221L18.9222 18.0413L18.9534 18.0663L18.9847 18.0413L21.6471 15.9109C21.8517 15.7477 22.1417 15.7478 22.3455 15.9109L22.3456 15.9109L25.0104 18.0419L25.0416 18.0669L25.0729 18.0419L25.7248 17.5209L25.7538 17.4977L25.74 17.4633L22.0464 8.22874ZM16.553 17.5761L16.4717 17.511V17.6151V29.1304V29.1804H16.5217H27.4783H27.5283V29.1304V17.6139V17.5099L27.447 17.5749L25.3903 19.2189L25.3901 19.219C25.1875 19.3821 24.8958 19.3821 24.6932 19.219L24.693 19.2189L22.0276 17.0885L21.9963 17.0635L21.9651 17.0885L19.3027 19.219C19.0988 19.3821 18.8082 19.3821 18.6043 19.219L16.553 17.5761ZM34.7826 32.8326H34.8326V32.7826V26.6957V26.6457H34.7826H32.3478H32.2978V26.6957V29.7391C32.2978 30.0475 32.0481 30.2978 31.7391 30.2978H12.2609C11.9525 30.2978 11.7022 30.0475 11.7022 29.7391V26.6957V26.6457H11.6522H9.21739H9.16739V26.6957V32.7826V32.8326H9.21739H34.7826ZM19.0065 23.6522C19.0065 22.0016 20.3494 20.6587 22 20.6587C23.6506 20.6587 24.9935 22.0016 24.9935 23.6522C24.9935 25.3027 23.6506 26.6457 22 26.6457C20.3494 26.6457 19.0065 25.3027 19.0065 23.6522ZM20.1239 23.6522C20.1239 24.6866 20.9656 25.5283 22 25.5283C23.0344 25.5283 23.8761 24.6866 23.8761 23.6522C23.8761 22.6178 23.0344 21.7761 22 21.7761C20.9656 21.7761 20.1239 22.6178 20.1239 23.6522ZM22 6.05C22.2285 6.05 22.4341 6.18913 22.5191 6.40083L21.4809 6.40083C21.5659 6.18913 21.7715 6.05 22 6.05Z" fill="white" stroke="#2B2A29" stroke-width="0.1"/>
</svg>
